<mxfile host="Electron" modified="2024-06-03T09:26:07.095Z" agent="Mozilla/5.0 (Windows NT 10.0; Win64; x64) AppleWebKit/537.36 (KHTML, like Gecko) draw.io/24.2.5 Chrome/120.0.6099.109 Electron/28.1.0 Safari/537.36" etag="FU9R2hrV6Ux3jB6n1Yco" version="24.2.5" type="device">
  <diagram name="PÃ¡gina-1" id="l3N7yL3Utd_uWMSujHmd">
    <mxGraphModel dx="989" dy="577" grid="1" gridSize="10" guides="1" tooltips="1" connect="1" arrows="1" fold="1" page="1" pageScale="1" pageWidth="827" pageHeight="1169" math="0" shadow="0">
      <root>
        <mxCell id="0" />
        <mxCell id="1" parent="0" />
        <mxCell id="n2V154Dj1KjKW0734t63-1" value="" style="group;rotation=-135;" vertex="1" connectable="0" parent="1">
          <mxGeometry x="284" y="219.99577136594007" width="110" height="100.00422863405993" as="geometry" />
        </mxCell>
        <mxCell id="n2V154Dj1KjKW0734t63-2" value="" style="rounded=0;whiteSpace=wrap;html=1;" vertex="1" parent="n2V154Dj1KjKW0734t63-1">
          <mxGeometry x="-7" y="-5" width="110" height="110" as="geometry" />
        </mxCell>
        <mxCell id="n2V154Dj1KjKW0734t63-3" value="" style="ellipse;whiteSpace=wrap;html=1;aspect=fixed;rotation=-135;" vertex="1" parent="n2V154Dj1KjKW0734t63-1">
          <mxGeometry x="9" y="10" width="80" height="80" as="geometry" />
        </mxCell>
        <mxCell id="n2V154Dj1KjKW0734t63-4" value="" style="group;rotation=-165;" vertex="1" connectable="0" parent="n2V154Dj1KjKW0734t63-1">
          <mxGeometry x="25" y="79" width="24" height="18" as="geometry" />
        </mxCell>
        <mxCell id="n2V154Dj1KjKW0734t63-5" value="" style="triangle;whiteSpace=wrap;html=1;rotation=-165;" vertex="1" parent="n2V154Dj1KjKW0734t63-4">
          <mxGeometry x="6" y="1" width="18" height="18" as="geometry" />
        </mxCell>
        <mxCell id="n2V154Dj1KjKW0734t63-6" value="" style="ellipse;whiteSpace=wrap;html=1;aspect=fixed;rotation=-165;" vertex="1" parent="n2V154Dj1KjKW0734t63-4">
          <mxGeometry x="1" y="5" width="6" height="6" as="geometry" />
        </mxCell>
        <mxCell id="n2V154Dj1KjKW0734t63-7" value="" style="triangle;whiteSpace=wrap;html=1;rotation=-45;" vertex="1" parent="n2V154Dj1KjKW0734t63-1">
          <mxGeometry x="8" y="17" width="18" height="18" as="geometry" />
        </mxCell>
        <mxCell id="n2V154Dj1KjKW0734t63-8" value="" style="ellipse;whiteSpace=wrap;html=1;aspect=fixed;rotation=-186;" vertex="1" parent="n2V154Dj1KjKW0734t63-1">
          <mxGeometry x="23" y="14" width="6" height="6" as="geometry" />
        </mxCell>
        <mxCell id="n2V154Dj1KjKW0734t63-9" value="" style="group;rotation=-285;" vertex="1" connectable="0" parent="n2V154Dj1KjKW0734t63-1">
          <mxGeometry x="74" y="31" width="24" height="18" as="geometry" />
        </mxCell>
        <mxCell id="n2V154Dj1KjKW0734t63-10" value="" style="triangle;whiteSpace=wrap;html=1;rotation=-285;" vertex="1" parent="n2V154Dj1KjKW0734t63-9">
          <mxGeometry x="3" y="-3" width="18" height="18" as="geometry" />
        </mxCell>
        <mxCell id="n2V154Dj1KjKW0734t63-11" value="" style="ellipse;whiteSpace=wrap;html=1;aspect=fixed;rotation=-285;" vertex="1" parent="n2V154Dj1KjKW0734t63-9">
          <mxGeometry x="12" y="15" width="6" height="6" as="geometry" />
        </mxCell>
        <mxCell id="n2V154Dj1KjKW0734t63-12" value="VCO1 (P)" style="text;html=1;align=center;verticalAlign=middle;whiteSpace=wrap;rounded=0;" vertex="1" parent="n2V154Dj1KjKW0734t63-1">
          <mxGeometry x="19" y="-29.995771365940072" width="60" height="30" as="geometry" />
        </mxCell>
        <mxCell id="n2V154Dj1KjKW0734t63-13" value="" style="endArrow=classic;html=1;rounded=0;entryX=0.5;entryY=0;entryDx=0;entryDy=0;" edge="1" parent="1" target="n2V154Dj1KjKW0734t63-36">
          <mxGeometry width="50" height="50" relative="1" as="geometry">
            <mxPoint x="388" y="269.65" as="sourcePoint" />
            <mxPoint x="458" y="269.65" as="targetPoint" />
            <Array as="points">
              <mxPoint x="495" y="270" />
            </Array>
          </mxGeometry>
        </mxCell>
        <mxCell id="n2V154Dj1KjKW0734t63-14" value="" style="rounded=0;whiteSpace=wrap;html=1;" vertex="1" parent="1">
          <mxGeometry x="277" y="354.9957713659401" width="110" height="110" as="geometry" />
        </mxCell>
        <mxCell id="n2V154Dj1KjKW0734t63-15" value="" style="ellipse;whiteSpace=wrap;html=1;aspect=fixed;rotation=-135;" vertex="1" parent="1">
          <mxGeometry x="293" y="369.9957713659401" width="80" height="80" as="geometry" />
        </mxCell>
        <mxCell id="n2V154Dj1KjKW0734t63-16" value="" style="group;rotation=-165;" vertex="1" connectable="0" parent="1">
          <mxGeometry x="309" y="438.9957713659401" width="24" height="18" as="geometry" />
        </mxCell>
        <mxCell id="n2V154Dj1KjKW0734t63-17" value="" style="triangle;whiteSpace=wrap;html=1;rotation=-165;" vertex="1" parent="n2V154Dj1KjKW0734t63-16">
          <mxGeometry x="6" y="1" width="18" height="18" as="geometry" />
        </mxCell>
        <mxCell id="n2V154Dj1KjKW0734t63-18" value="" style="ellipse;whiteSpace=wrap;html=1;aspect=fixed;rotation=-165;" vertex="1" parent="n2V154Dj1KjKW0734t63-16">
          <mxGeometry x="1" y="5" width="6" height="6" as="geometry" />
        </mxCell>
        <mxCell id="n2V154Dj1KjKW0734t63-19" value="" style="triangle;whiteSpace=wrap;html=1;rotation=-45;" vertex="1" parent="1">
          <mxGeometry x="292" y="376.9957713659401" width="18" height="18" as="geometry" />
        </mxCell>
        <mxCell id="n2V154Dj1KjKW0734t63-20" value="" style="ellipse;whiteSpace=wrap;html=1;aspect=fixed;rotation=-186;" vertex="1" parent="1">
          <mxGeometry x="307" y="373.9957713659401" width="6" height="6" as="geometry" />
        </mxCell>
        <mxCell id="n2V154Dj1KjKW0734t63-21" value="" style="group;rotation=-285;" vertex="1" connectable="0" parent="1">
          <mxGeometry x="358" y="390.9957713659401" width="24" height="18" as="geometry" />
        </mxCell>
        <mxCell id="n2V154Dj1KjKW0734t63-22" value="" style="triangle;whiteSpace=wrap;html=1;rotation=-285;" vertex="1" parent="n2V154Dj1KjKW0734t63-21">
          <mxGeometry x="3" y="-3" width="18" height="18" as="geometry" />
        </mxCell>
        <mxCell id="n2V154Dj1KjKW0734t63-23" value="" style="ellipse;whiteSpace=wrap;html=1;aspect=fixed;rotation=-285;" vertex="1" parent="n2V154Dj1KjKW0734t63-21">
          <mxGeometry x="12" y="15" width="6" height="6" as="geometry" />
        </mxCell>
        <mxCell id="n2V154Dj1KjKW0734t63-24" value="VCO1 (N)" style="text;html=1;align=center;verticalAlign=middle;whiteSpace=wrap;rounded=0;" vertex="1" parent="1">
          <mxGeometry x="303" y="330" width="60" height="30" as="geometry" />
        </mxCell>
        <mxCell id="n2V154Dj1KjKW0734t63-25" value="" style="endArrow=classic;html=1;rounded=0;entryX=0.5;entryY=1;entryDx=0;entryDy=0;" edge="1" parent="1" target="n2V154Dj1KjKW0734t63-36">
          <mxGeometry width="50" height="50" relative="1" as="geometry">
            <mxPoint x="388" y="409.65" as="sourcePoint" />
            <mxPoint x="458" y="409.65" as="targetPoint" />
            <Array as="points">
              <mxPoint x="495" y="410" />
            </Array>
          </mxGeometry>
        </mxCell>
        <mxCell id="n2V154Dj1KjKW0734t63-26" value="" style="endArrow=classic;html=1;rounded=0;" edge="1" parent="1">
          <mxGeometry width="50" height="50" relative="1" as="geometry">
            <mxPoint x="80" y="319" as="sourcePoint" />
            <mxPoint x="160" y="319" as="targetPoint" />
          </mxGeometry>
        </mxCell>
        <mxCell id="n2V154Dj1KjKW0734t63-27" value="" style="endArrow=classic;html=1;rounded=0;" edge="1" parent="1">
          <mxGeometry width="50" height="50" relative="1" as="geometry">
            <mxPoint x="80" y="358" as="sourcePoint" />
            <mxPoint x="160" y="358" as="targetPoint" />
          </mxGeometry>
        </mxCell>
        <mxCell id="n2V154Dj1KjKW0734t63-28" value="" style="triangle;whiteSpace=wrap;html=1;" vertex="1" parent="1">
          <mxGeometry x="160" y="299" width="70" height="80" as="geometry" />
        </mxCell>
        <mxCell id="n2V154Dj1KjKW0734t63-29" value="gm" style="text;html=1;align=center;verticalAlign=middle;whiteSpace=wrap;rounded=0;" vertex="1" parent="1">
          <mxGeometry x="154" y="323" width="60" height="30" as="geometry" />
        </mxCell>
        <mxCell id="n2V154Dj1KjKW0734t63-30" value="" style="endArrow=classic;html=1;rounded=0;exitX=0.5;exitY=0;exitDx=0;exitDy=0;entryX=0;entryY=0.5;entryDx=0;entryDy=0;" edge="1" parent="1" source="n2V154Dj1KjKW0734t63-28" target="n2V154Dj1KjKW0734t63-2">
          <mxGeometry width="50" height="50" relative="1" as="geometry">
            <mxPoint x="420" y="490" as="sourcePoint" />
            <mxPoint x="470" y="440" as="targetPoint" />
            <Array as="points">
              <mxPoint x="230" y="319" />
              <mxPoint x="230" y="270" />
            </Array>
          </mxGeometry>
        </mxCell>
        <mxCell id="n2V154Dj1KjKW0734t63-31" value="" style="endArrow=classic;html=1;rounded=0;exitX=0.5;exitY=1;exitDx=0;exitDy=0;entryX=0;entryY=0.5;entryDx=0;entryDy=0;" edge="1" parent="1" source="n2V154Dj1KjKW0734t63-28" target="n2V154Dj1KjKW0734t63-14">
          <mxGeometry width="50" height="50" relative="1" as="geometry">
            <mxPoint x="420" y="490" as="sourcePoint" />
            <mxPoint x="470" y="440" as="targetPoint" />
            <Array as="points">
              <mxPoint x="230" y="360" />
              <mxPoint x="230" y="410" />
            </Array>
          </mxGeometry>
        </mxCell>
        <mxCell id="n2V154Dj1KjKW0734t63-32" value="inP" style="text;html=1;align=center;verticalAlign=middle;whiteSpace=wrap;rounded=0;" vertex="1" parent="1">
          <mxGeometry x="60" y="293" width="60" height="30" as="geometry" />
        </mxCell>
        <mxCell id="n2V154Dj1KjKW0734t63-33" value="inN" style="text;html=1;align=center;verticalAlign=middle;whiteSpace=wrap;rounded=0;" vertex="1" parent="1">
          <mxGeometry x="60" y="355" width="60" height="30" as="geometry" />
        </mxCell>
        <mxCell id="n2V154Dj1KjKW0734t63-34" value="Î¦ VCOP" style="text;html=1;align=center;verticalAlign=middle;whiteSpace=wrap;rounded=0;" vertex="1" parent="1">
          <mxGeometry x="387" y="240" width="60" height="30" as="geometry" />
        </mxCell>
        <mxCell id="n2V154Dj1KjKW0734t63-35" value="Î¦ VCON" style="text;html=1;align=center;verticalAlign=middle;whiteSpace=wrap;rounded=0;" vertex="1" parent="1">
          <mxGeometry x="387" y="380" width="60" height="30" as="geometry" />
        </mxCell>
        <mxCell id="n2V154Dj1KjKW0734t63-36" value="&lt;font style=&quot;font-size: 14px;&quot;&gt;-&lt;/font&gt;" style="ellipse;whiteSpace=wrap;html=1;aspect=fixed;" vertex="1" parent="1">
          <mxGeometry x="480" y="324" width="30" height="30" as="geometry" />
        </mxCell>
        <mxCell id="n2V154Dj1KjKW0734t63-37" value="" style="endArrow=classic;html=1;rounded=0;exitX=1;exitY=0.5;exitDx=0;exitDy=0;" edge="1" parent="1" source="n2V154Dj1KjKW0734t63-36">
          <mxGeometry width="50" height="50" relative="1" as="geometry">
            <mxPoint x="590" y="320" as="sourcePoint" />
            <mxPoint x="550" y="339" as="targetPoint" />
          </mxGeometry>
        </mxCell>
        <mxCell id="n2V154Dj1KjKW0734t63-38" value="Î¦out" style="text;html=1;align=center;verticalAlign=middle;whiteSpace=wrap;rounded=0;" vertex="1" parent="1">
          <mxGeometry x="540" y="325" width="60" height="30" as="geometry" />
        </mxCell>
      </root>
    </mxGraphModel>
  </diagram>
</mxfile>
